<?xml version="1.0" encoding="UTF-8" standalone="no"?>
<svg
   xmlns:dc="http://purl.org/dc/elements/1.1/"
   xmlns:cc="http://creativecommons.org/ns#"
   xmlns:rdf="http://www.w3.org/1999/02/22-rdf-syntax-ns#"
   xmlns:svg="http://www.w3.org/2000/svg"
   xmlns="http://www.w3.org/2000/svg"
   xmlns:sodipodi="http://sodipodi.sourceforge.net/DTD/sodipodi-0.dtd"
   xmlns:inkscape="http://www.inkscape.org/namespaces/inkscape"
   width="7.11111in"
   height="7.11111in"
   viewBox="0 0 512 512"
   id="svg2"
   version="1.1"
   inkscape:version="0.91 r13725"
   sodipodi:docname="Pause.svg">
  <metadata
     id="metadata9">
    <rdf:RDF>
      <cc:Work
         rdf:about="">
        <dc:format>image/svg+xml</dc:format>
        <dc:type
           rdf:resource="http://purl.org/dc/dcmitype/StillImage" />
      </cc:Work>
    </rdf:RDF>
  </metadata>
  <defs
     id="defs7" />
  <sodipodi:namedview
     pagecolor="#ffffff"
     bordercolor="#666666"
     borderopacity="1"
     objecttolerance="10"
     gridtolerance="10"
     guidetolerance="10"
     inkscape:pageopacity="0"
     inkscape:pageshadow="2"
     inkscape:window-width="701"
     inkscape:window-height="480"
     id="namedview5"
     showgrid="false"
     inkscape:zoom="0.36875005"
     inkscape:cx="319.99996"
     inkscape:cy="319.99996"
     inkscape:window-x="0"
     inkscape:window-y="0"
     inkscape:window-maximized="0"
     inkscape:current-layer="svg2" />
  <path
     id="Pause"
     d="m 240.65691,50.693867 c 26.1,-0.17 58.1,8.2 82,18.51 25.56,11.02 49.29,26.570001 69,46.280003 18.78,18.77 35.23,39.89 46.68,64 41.6,87.53999 26.48,188.88999 -39.77,259.99999 -19.16,20.57 -42.77,36.88 -67.91,49.24 -32.05,15.76 -69.41,23.17 -105,22.76 0,0 -10,-0.91 -10,-0.91 -21.88,-1.51 -43.41,-5.46 -64,-13.28 -36.92,-14.03 -66.199996,-33.32 -92.829996,-62.81 -66.4299946,-73.55 -76.729995,-183.42 -27.74,-268.99999 26.5,-46.3 70.229996,-83.380003 120.569996,-101.310003 24.62,-8.77 36.02,-9.72 61,-13.48 0,0 28,0 28,0 z m -29,31.96 c -11.25,1.07 -23.13,3.160001 -34,6.260001 -55.19,15.730002 -100.629996,52.680002 -125.739996,104.570002 -41.219995,85.14999 -17.01,190.31999 59.739996,246.84999 16.77,12.34 35.22,22.22 55,28.82 15.61,5.2 37.58,10.13 54,10.33 0,0 19,0 19,0 25.2,-0.04 57.43,-9.25 80,-20.26 53.29,-25.98 92.7,-77.04 105.42,-134.74 2.17,-9.83 4.56,-25.05 4.58,-35 0.05,-29.46 -1.75,-49.9 -12.05,-78 -22.73,-61.96999 -76.38,-109.95999 -140.95,-124.419992 -12.63,-2.83 -38.52,-6.460001 -51,-5.300001 0,0 -14,0.89 -14,0.89 z m -5,102.830003 c 0,0 0,189.99999 0,189.99999 0,0 -60,0 -60,0 0,0 0,-189.99999 0,-189.99999 0,0 60,0 60,0 z m 109,0 c 0,0 0,189.99999 0,189.99999 0,0 -61,0 -61,0 0,0 0,-189.99999 0,-189.99999 0,0 61,0 61,0 z"
     inkscape:connector-curvature="0"
     style="fill:none;stroke:#000000;stroke-width:1" />
</svg>
