<?xml version="1.0" encoding="UTF-8" standalone="no"?>
<svg
   xmlns:dc="http://purl.org/dc/elements/1.1/"
   xmlns:cc="http://creativecommons.org/ns#"
   xmlns:rdf="http://www.w3.org/1999/02/22-rdf-syntax-ns#"
   xmlns:svg="http://www.w3.org/2000/svg"
   xmlns="http://www.w3.org/2000/svg"
   xmlns:sodipodi="http://sodipodi.sourceforge.net/DTD/sodipodi-0.dtd"
   xmlns:inkscape="http://www.inkscape.org/namespaces/inkscape"
   width="7.11111in"
   height="7.11111in"
   viewBox="0 0 512 512"
   id="svg2"
   version="1.1"
   inkscape:version="0.91 r13725"
   sodipodi:docname="Shuffle.svg">
  <metadata
     id="metadata9">
    <rdf:RDF>
      <cc:Work
         rdf:about="">
        <dc:format>image/svg+xml</dc:format>
        <dc:type
           rdf:resource="http://purl.org/dc/dcmitype/StillImage" />
      </cc:Work>
    </rdf:RDF>
  </metadata>
  <defs
     id="defs7" />
  <sodipodi:namedview
     pagecolor="#ffffff"
     bordercolor="#666666"
     borderopacity="1"
     objecttolerance="10"
     gridtolerance="10"
     guidetolerance="10"
     inkscape:pageopacity="0"
     inkscape:pageshadow="2"
     inkscape:window-width="701"
     inkscape:window-height="480"
     id="namedview5"
     showgrid="false"
     inkscape:zoom="0.36875005"
     inkscape:cx="319.99996"
     inkscape:cy="319.99996"
     inkscape:window-x="0"
     inkscape:window-y="0"
     inkscape:window-maximized="0"
     inkscape:current-layer="svg2" />
  <path
     id="Shuffle"
     d="m 240.65692,50.693864 c 26.1,-0.17 58.1,8.2 82,18.51 25.56,11.02 49.29,26.57 69,46.279996 18.78,18.77 35.23,39.89 46.68,64 41.6,87.54 26.48,188.89 -39.77,260 -19.16,20.57 -42.77,36.88 -67.91,49.24 -32.05,15.76 -69.41,23.17 -105,22.76 0,0 -10,-0.91 -10,-0.91 -21.88,-1.51 -43.41,-5.46 -64,-13.28 -36.92,-14.03 -66.200002,-33.32 -92.830002,-62.81 -66.4299999,-73.55 -76.73,-183.42 -27.74,-269 26.5,-46.3 70.230002,-83.379996 120.570002,-101.309996 24.62,-8.77 36.02,-9.72 61,-13.48 0,0 28,0 28,0 z m -29,31.96 c -11.25,1.07 -23.13,3.16 -34,6.26 -55.19,15.729996 -100.630002,52.679996 -125.740002,104.569996 -41.22,85.15 -17.01,190.32 59.740002,246.85 16.77,12.34 35.22,22.22 55,28.82 15.61,5.2 37.58,10.13 54,10.33 0,0 19,0 19,0 25.2,-0.04 57.43,-9.25 80,-20.26 53.29,-25.98 92.7,-77.04 105.42,-134.74 2.17,-9.83 4.56,-25.05 4.58,-35 0.05,-29.46 -1.75,-49.9 -12.05,-78 -22.73,-61.97 -76.38,-109.96 -140.95,-124.419996 -12.63,-2.83 -38.52,-6.46 -51,-5.3 0,0 -14,0.89 -14,0.89 z m -39,95.829996 c 0,0 20,30 20,30 0,0 11,18 11,18 0,0 -18,0 -18,0 0,0 0,54 0,54 0,2.18 -0.09,4.92 0.51,7 2.04,7.1 15.99,21.56 21.49,27 4.76,4.71 10.56,9.65 16,13.57 1.72,1.24 5.28,4.1 7.42,3.97 3.72,-0.22 16.31,-11.32 19.58,-14.12 6.36,-5.45 22.74,-22.81 25.3,-30.42 0.83,-2.45 0.7,-5.42 0.7,-8 0,0 0,-53 0,-53 0,0 -18,0 -18,0 2.25,-7.08 17,-27.5 22,-35 3.16,-4.74 5.83,-10.31 11,-13 0,0 31,48 31,48 0,0 -18,0 -18,0 0,0 0,62 0,62 -0.02,10.08 -3.67,13.97 -9.43,22 -5.08,7.07 -14.33,17.98 -20.57,23.96 -4.94,4.73 -10.78,8.62 -15,14.04 0,0 18,4.77 18,4.77 14.2,3.31 22.49,4.23 37,4.23 0,0 0,28 0,28 -20.33,0 -37.54,-2.8 -57,-8.72 0,0 -17,-6.58 -17,-6.58 -2.76,-1.24 -6.99,-3.54 -10,-3.46 -2.66,0.07 -7.32,2.63 -10,3.75 0,0 -21,7.67 -21,7.67 -16.69,5.33 -34.55,7.34 -52,7.34 0,0 0,-28 0,-28 22.06,0 34.29,-3.1 55,-10 -13.48,-9.9 -26.03,-23.48 -35.85,-37 -5.94,-8.18 -10.13,-12.67 -10.15,-23 0,0 0,-61 0,-61 0,0 -17,0 -17,0 0,0 11,-18 11,-18 0,0 20,-30 20,-30 0,0 2,0 2,0 z"
     inkscape:connector-curvature="0"
     style="fill:none;stroke:#000000;stroke-width:1" />
</svg>
