<?xml version="1.0" encoding="UTF-8" standalone="no"?>
<svg
   xmlns:dc="http://purl.org/dc/elements/1.1/"
   xmlns:cc="http://creativecommons.org/ns#"
   xmlns:rdf="http://www.w3.org/1999/02/22-rdf-syntax-ns#"
   xmlns:svg="http://www.w3.org/2000/svg"
   xmlns="http://www.w3.org/2000/svg"
   xmlns:sodipodi="http://sodipodi.sourceforge.net/DTD/sodipodi-0.dtd"
   xmlns:inkscape="http://www.inkscape.org/namespaces/inkscape"
   width="7.11111in"
   height="7.11111in"
   viewBox="0 0 512 512"
   id="svg2"
   version="1.1"
   inkscape:version="0.91 r13725"
   sodipodi:docname="Volume mute.svg">
  <metadata
     id="metadata9">
    <rdf:RDF>
      <cc:Work
         rdf:about="">
        <dc:format>image/svg+xml</dc:format>
        <dc:type
           rdf:resource="http://purl.org/dc/dcmitype/StillImage" />
      </cc:Work>
    </rdf:RDF>
  </metadata>
  <defs
     id="defs7" />
  <sodipodi:namedview
     pagecolor="#ffffff"
     bordercolor="#666666"
     borderopacity="1"
     objecttolerance="10"
     gridtolerance="10"
     guidetolerance="10"
     inkscape:pageopacity="0"
     inkscape:pageshadow="2"
     inkscape:window-width="701"
     inkscape:window-height="480"
     id="namedview5"
     showgrid="false"
     inkscape:zoom="0.36875005"
     inkscape:cx="319.99996"
     inkscape:cy="319.99996"
     inkscape:window-x="0"
     inkscape:window-y="0"
     inkscape:window-maximized="0"
     inkscape:current-layer="svg2" />
  <path
     id="Volume mute"
     d="m 240.65692,50.693864 c 26.1,-0.17 58.1,8.2 82,18.51 25.56,11.02 49.29,26.57 69,46.279996 18.78,18.77 35.23,39.89 46.68,64 41.6,87.54 26.48,188.89 -39.77,260 -19.16,20.57 -42.77,36.88 -67.91,49.24 -32.05,15.76 -69.41,23.17 -105,22.76 0,0 -10,-0.91 -10,-0.91 -21.88,-1.51 -43.41,-5.46 -64,-13.28 -36.92,-14.03 -66.200002,-33.32 -92.830002,-62.81 -66.4299999,-73.55 -76.73,-183.42 -27.74,-269 26.5,-46.3 70.230002,-83.379996 120.570002,-101.309996 24.62,-8.77 36.02,-9.72 61,-13.48 0,0 28,0 28,0 z m -29,31.96 c -11.25,1.07 -23.13,3.16 -34,6.26 -55.19,15.729996 -100.630002,52.679996 -125.740002,104.569996 -41.22,85.15 -17.01,190.32 59.740002,246.85 16.77,12.34 35.22,22.22 55,28.82 15.61,5.2 37.58,10.13 54,10.33 0,0 19,0 19,0 25.2,-0.04 57.43,-9.25 80,-20.26 53.29,-25.98 92.7,-77.04 105.42,-134.74 2.17,-9.83 4.56,-25.05 4.58,-35 0.05,-29.46 -1.75,-49.9 -12.05,-78 -22.73,-61.97 -76.38,-109.96 -140.95,-124.419996 -12.63,-2.83 -38.52,-6.46 -51,-5.3 0,0 -14,0.89 -14,0.89 z m -56,162.829996 c 0,0 8,-0.7 8,-0.7 0,0 21,-13.72 21,-13.72 0,0 36,-24.92 36,-24.92 0,0 20,-12.66 20,-12.66 0,0 0,175 0,175 0,0 -57,-38.67 -57,-38.67 0,0 -20,-12.82 -20,-12.82 0,0 -7,-0.51 -7,-0.51 0,0 -57.000002,0 -57.000002,0 0,0 0,-71 0,-71 0,0 56.000002,0 56.000002,0 z m 132,42 c 1.91,-1.94 5.61,-4.92 4.8,-8 -0.49,-1.86 -3.43,-4.61 -4.8,-6 0,0 -13,-13 -13,-13 -2.37,-2.42 -6.04,-5.27 -4.26,-9 0.78,-1.62 3.9,-4.64 5.26,-6 1.8,-1.8 5.33,-5.8 8,-5.8 2.24,0 4.49,2.38 6,3.82 0,0 13,12.98 13,12.98 1.77,1.76 5.4,5.96 8,5.96 2.42,0 5.37,-3.36 7,-4.96 0,0 13,-13 13,-13 1.67,-1.63 4.51,-4.8 7,-4.8 2.67,0 6.2,4 8,5.8 1.8,1.8 5.8,5.33 5.8,8 0,2.24 -2.38,4.49 -3.82,6 0,0 -12.98,13 -12.98,13 -2.06,2.07 -6.66,5.74 -5.8,9 0.58,2.22 5.98,7.18 7.8,9 5.29,5.29 12.79,12.12 17,18 -4.88,4.88 -10.87,12.1 -17,15 0,0 -18,-19 -18,-19 0,0 -8,-5.96 -8,-5.96 0,0 -8,5.96 -8,5.96 0,0 -18,19 -18,19 -5.93,-2.8 -13.16,-10.64 -17,-16 0,0 20,-20 20,-20 z"
     inkscape:connector-curvature="0"
     style="fill:none;stroke:#000000;stroke-width:1" />
</svg>
