<?xml version="1.0" encoding="UTF-8" standalone="no"?>
<svg
   xmlns:dc="http://purl.org/dc/elements/1.1/"
   xmlns:cc="http://creativecommons.org/ns#"
   xmlns:rdf="http://www.w3.org/1999/02/22-rdf-syntax-ns#"
   xmlns:svg="http://www.w3.org/2000/svg"
   xmlns="http://www.w3.org/2000/svg"
   xmlns:sodipodi="http://sodipodi.sourceforge.net/DTD/sodipodi-0.dtd"
   xmlns:inkscape="http://www.inkscape.org/namespaces/inkscape"
   width="7.11111in"
   height="7.11111in"
   viewBox="0 0 512 512"
   id="svg2"
   version="1.1"
   inkscape:version="0.91 r13725"
   sodipodi:docname="Volume high.svg">
  <metadata
     id="metadata9">
    <rdf:RDF>
      <cc:Work
         rdf:about="">
        <dc:format>image/svg+xml</dc:format>
        <dc:type
           rdf:resource="http://purl.org/dc/dcmitype/StillImage" />
      </cc:Work>
    </rdf:RDF>
  </metadata>
  <defs
     id="defs7" />
  <sodipodi:namedview
     pagecolor="#ffffff"
     bordercolor="#666666"
     borderopacity="1"
     objecttolerance="10"
     gridtolerance="10"
     guidetolerance="10"
     inkscape:pageopacity="0"
     inkscape:pageshadow="2"
     inkscape:window-width="701"
     inkscape:window-height="480"
     id="namedview5"
     showgrid="false"
     inkscape:zoom="0.36875005"
     inkscape:cx="319.99996"
     inkscape:cy="319.99996"
     inkscape:window-x="0"
     inkscape:window-y="0"
     inkscape:window-maximized="0"
     inkscape:current-layer="svg2" />
  <path
     id="Volume high"
     d="m 240.65692,50.693864 c 26.1,-0.17 58.1,8.2 82,18.51 25.56,11.02 49.29,26.57 69,46.279996 18.78,18.77 35.23,39.89 46.68,64 41.6,87.54 26.48,188.89 -39.77,260 -19.16,20.57 -42.77,36.88 -67.91,49.24 -32.05,15.76 -69.41,23.17 -105,22.76 0,0 -10,-0.91 -10,-0.91 -21.88,-1.51 -43.41,-5.46 -64,-13.28 -36.92,-14.03 -66.200002,-33.32 -92.830002,-62.81 -66.4299999,-73.55 -76.73,-183.42 -27.74,-269 26.5,-46.3 70.230002,-83.379996 120.570002,-101.309996 24.62,-8.77 36.02,-9.72 61,-13.48 0,0 28,0 28,0 z m -29,31.96 c -11.25,1.07 -23.13,3.16 -34,6.26 -55.19,15.729996 -100.630002,52.679996 -125.740002,104.569996 -41.22,85.15 -17.01,190.32 59.740002,246.85 16.77,12.34 35.22,22.22 55,28.82 15.61,5.2 37.58,10.13 54,10.33 0,0 19,0 19,0 25.2,-0.04 57.43,-9.25 80,-20.26 53.29,-25.98 92.7,-77.04 105.42,-134.74 2.17,-9.83 4.56,-25.05 4.58,-35 0.05,-29.46 -1.75,-49.9 -12.05,-78 -22.73,-61.97 -76.38,-109.96 -140.95,-124.419996 -12.63,-2.83 -38.52,-6.46 -51,-5.3 0,0 -14,0.89 -14,0.89 z m 90,115.829996 c 9.77,4.27 20.66,12.24 27.91,20 40.62,43.47 28.89,116.28 -24.91,143.19 -12.95,6.48 -27.56,9.8 -42,9.81 0,0 0,-24 0,-24 45.51,-0.14 77.72,-43.54 64.11,-87 -2.08,-6.66 -6.32,-14.53 -10.63,-20 -9.16,-11.65 -21.22,-20.03 -35.48,-23.99 -14.68,-4.07 -17.83,0.77 -18,-9.01 0,0 0,-17 0,-17 15.86,0 24.35,1.61 39,8 z m -146,47 c 0,0 8,-0.7 8,-0.7 0,0 21,-13.72 21,-13.72 0,0 36,-24.92 36,-24.92 0,0 20,-12.66 20,-12.66 0,0 0,175 0,175 0,0 -57,-38.67 -57,-38.67 0,0 -20,-12.82 -20,-12.82 0,0 -7,-0.51 -7,-0.51 0,0 -57.000002,0 -57.000002,0 0,0 0,-71 0,-71 0,0 56.000002,0 56.000002,0 z m 138.82,7.01 c 24.7,27.38 5.08,69.88 -31.82,69.99 0,0 0,-84 0,-84 12.47,1.01 23.18,4.44 31.82,14.01 z"
     inkscape:connector-curvature="0"
     style="fill:none;stroke:#000000;stroke-width:1" />
</svg>
