<?xml version="1.0" encoding="UTF-8" standalone="no"?>
<!DOCTYPE svg PUBLIC "-//W3C//DTD SVG 20010904//EN"
              "http://www.w3.org/TR/2001/REC-SVG-20010904/DTD/svg10.dtd">

<svg xmlns="http://www.w3.org/2000/svg"
     width="7.11111in" height="7.11111in"
     viewBox="0 0 512 512">
  <path id="Pin"
        fill="none" stroke="black" stroke-width="1"
        d="M 301.00,169.00
           C 301.00,169.00 301.00,232.00 301.00,232.00
             301.00,232.00 300.00,264.00 300.00,264.00
             300.00,264.00 318.00,264.00 318.00,264.00
             318.00,264.00 318.00,280.00 318.00,280.00
             318.00,280.00 264.00,280.00 264.00,280.00
             264.00,280.00 264.00,347.00 264.00,347.00
             264.00,347.00 248.00,347.00 248.00,347.00
             248.00,347.00 248.00,280.00 248.00,280.00
             248.00,280.00 194.00,280.00 194.00,280.00
             194.00,280.00 194.00,264.00 194.00,264.00
             194.00,264.00 212.00,264.00 212.00,264.00
             212.00,264.00 212.00,169.00 212.00,169.00
             212.00,169.00 301.00,169.00 301.00,169.00 Z" />
</svg>
