<?xml version="1.0" encoding="UTF-8" standalone="no"?>
<svg
   xmlns:dc="http://purl.org/dc/elements/1.1/"
   xmlns:cc="http://creativecommons.org/ns#"
   xmlns:rdf="http://www.w3.org/1999/02/22-rdf-syntax-ns#"
   xmlns:svg="http://www.w3.org/2000/svg"
   xmlns="http://www.w3.org/2000/svg"
   xmlns:sodipodi="http://sodipodi.sourceforge.net/DTD/sodipodi-0.dtd"
   xmlns:inkscape="http://www.inkscape.org/namespaces/inkscape"
   width="7.11111in"
   height="7.11111in"
   viewBox="0 0 512 512"
   id="svg2"
   version="1.1"
   inkscape:version="0.91 r13725"
   sodipodi:docname="Repeat one.svg">
  <metadata
     id="metadata9">
    <rdf:RDF>
      <cc:Work
         rdf:about="">
        <dc:format>image/svg+xml</dc:format>
        <dc:type
           rdf:resource="http://purl.org/dc/dcmitype/StillImage" />
      </cc:Work>
    </rdf:RDF>
  </metadata>
  <defs
     id="defs7" />
  <sodipodi:namedview
     pagecolor="#ffffff"
     bordercolor="#666666"
     borderopacity="1"
     objecttolerance="10"
     gridtolerance="10"
     guidetolerance="10"
     inkscape:pageopacity="0"
     inkscape:pageshadow="2"
     inkscape:window-width="1366"
     inkscape:window-height="716"
     id="namedview5"
     showgrid="false"
     inkscape:zoom="0.36875005"
     inkscape:cx="319.99996"
     inkscape:cy="319.99996"
     inkscape:window-x="-8"
     inkscape:window-y="-8"
     inkscape:window-maximized="1"
     inkscape:current-layer="svg2" />
  <path
     id="Repeat one"
     d="m 240.65692,50.693864 c 26.1,-0.17 58.1,8.2 82,18.51 25.56,11.02 49.29,26.57 69,46.279996 18.78,18.77 35.23,39.89 46.68,64 41.6,87.54 26.48,188.89 -39.77,260 -19.16,20.57 -42.77,36.88 -67.91,49.24 -32.05,15.76 -69.41,23.17 -105,22.76 0,0 -10,-0.91 -10,-0.91 -21.88,-1.51 -43.41,-5.46 -64,-13.28 -36.92,-14.03 -66.200002,-33.32 -92.830002,-62.81 -66.4299999,-73.55 -76.73,-183.42 -27.74,-269 26.5,-46.3 70.230002,-83.379996 120.570002,-101.309996 24.62,-8.77 36.02,-9.72 61,-13.48 0,0 28,0 28,0 z m -29,31.96 c -11.25,1.07 -23.13,3.16 -34,6.26 -55.19,15.729996 -100.630002,52.679996 -125.740002,104.569996 -41.22,85.15 -17.01,190.32 59.740002,246.85 16.77,12.34 35.22,22.22 55,28.82 15.61,5.2 37.58,10.13 54,10.33 0,0 19,0 19,0 25.2,-0.04 57.43,-9.25 80,-20.26 53.29,-25.98 92.7,-77.04 105.42,-134.74 2.17,-9.83 4.56,-25.05 4.58,-35 0.05,-29.46 -1.75,-49.9 -12.05,-78 -22.73,-61.97 -76.38,-109.96 -140.95,-124.419996 -12.63,-2.83 -38.52,-6.46 -51,-5.3 0,0 -14,0.89 -14,0.89 z m 35,113.829996 c 0.19,-10.78 5.84,-4.49 17,-9.13 8.17,-3.4 8.6,-9.87 11.49,-11.85 2.44,-1.66 14.92,-1.02 18.51,-1.02 0,0 0,120 0,120 0,0 -29,0 -29,0 0,0 0,-88 0,-88 0,0 -18,0 -18,0 0,0 0,-10 0,-10 z m -87,-20.09 c 0,0 22,1.18 22,1.18 0,0 30,1.91 30,1.91 0,0 -3.58,14 -3.58,14 0,0 -12.42,46 -12.42,46 -4.43,-2.48 -6.79,-6.9 -9.66,-11 -1.19,-1.7 -3.21,-5.06 -5.43,-5.38 -3.47,-0.5 -12.21,9.61 -14.39,12.38 -12.63,16.03 -17.55,32.91 -17.52,53 0.02,9.93 2.21,19.84 6.01,29 3.96,9.56 10,18.47 17.08,26 39.59,42.07 108.76,29.19 133.65,-22 5.11,-10.51 8.15,-24.33 8.26,-36 0,0 32,0 32,0 0,15.56 -3.11,31.68 -9.29,46 -8.21,19.05 -21.85,36.12 -38.71,48.25 -41.62,29.96 -100.7,27.51 -140,-5.17 -10.94,-9.1 -19.9,-19.54 -26.69,-32.08 -16.99,-31.34 -19.25,-66.83 -6.11,-100 4.85,-12.24 12.62,-24.58 21.81,-34 2.6,-2.66 13.59,-11.94 13.55,-15.04 -0.04,-3.1 -8.13,-12.23 -10.56,-17.96 0,0 10,0.91 10,0.91 z"
     inkscape:connector-curvature="0"
     style="fill:none;stroke:#000000;stroke-width:1" />
</svg>
