<?xml version="1.0" encoding="UTF-8" standalone="no"?>
<!DOCTYPE svg PUBLIC "-//W3C//DTD SVG 20010904//EN"
              "http://www.w3.org/TR/2001/REC-SVG-20010904/DTD/svg10.dtd">

<svg xmlns="http://www.w3.org/2000/svg"
     width="7.11111in" height="7.11111in"
     viewBox="0 0 512 512">
  <path id="Repeat one"
        fill="none" stroke="black" stroke-width="1"
        d="M 266.00,26.21
           C 292.10,26.04 324.10,34.41 348.00,44.72
             373.56,55.74 397.29,71.29 417.00,91.00
             435.78,109.77 452.23,130.89 463.68,155.00
             505.28,242.54 490.16,343.89 423.91,415.00
             404.75,435.57 381.14,451.88 356.00,464.24
             323.95,480.00 286.59,487.41 251.00,487.00
             251.00,487.00 241.00,486.09 241.00,486.09
             219.12,484.58 197.59,480.63 177.00,472.81
             140.08,458.78 110.80,439.49 84.17,410.00
             17.74,336.45 7.44,226.58 56.43,141.00
             82.93,94.70 126.66,57.62 177.00,39.69
             201.62,30.92 213.02,29.97 238.00,26.21
             238.00,26.21 266.00,26.21 266.00,26.21 Z
           M 237.00,58.17
           C 225.75,59.24 213.87,61.33 203.00,64.43
             147.81,80.16 102.37,117.11 77.26,169.00
             36.04,254.15 60.25,359.32 137.00,415.85
             153.77,428.19 172.22,438.07 192.00,444.67
             207.61,449.87 229.58,454.80 246.00,455.00
             246.00,455.00 265.00,455.00 265.00,455.00
             290.20,454.96 322.43,445.75 345.00,434.74
             398.29,408.76 437.70,357.70 450.42,300.00
             452.59,290.17 454.98,274.95 455.00,265.00
             455.05,235.54 453.25,215.10 442.95,187.00
             420.22,125.03 366.57,77.04 302.00,62.58
             289.37,59.75 263.48,56.12 251.00,57.28
             251.00,57.28 237.00,58.17 237.00,58.17 Z
           M 272.00,172.00
           C 272.19,161.22 277.84,167.51 289.00,162.87
             297.17,159.47 297.60,153.00 300.49,151.02
             302.93,149.36 315.41,150.00 319.00,150.00
             319.00,150.00 319.00,270.00 319.00,270.00
             319.00,270.00 290.00,270.00 290.00,270.00
             290.00,270.00 290.00,182.00 290.00,182.00
             290.00,182.00 272.00,182.00 272.00,182.00
             272.00,182.00 272.00,172.00 272.00,172.00 Z
           M 185.00,151.91
           C 185.00,151.91 207.00,153.09 207.00,153.09
             207.00,153.09 237.00,155.00 237.00,155.00
             237.00,155.00 233.42,169.00 233.42,169.00
             233.42,169.00 221.00,215.00 221.00,215.00
             216.57,212.52 214.21,208.10 211.34,204.00
             210.15,202.30 208.13,198.94 205.91,198.62
             202.44,198.12 193.70,208.23 191.52,211.00
             178.89,227.03 173.97,243.91 174.00,264.00
             174.02,273.93 176.21,283.84 180.01,293.00
             183.97,302.56 190.01,311.47 197.09,319.00
             236.68,361.07 305.85,348.19 330.74,297.00
             335.85,286.49 338.89,272.67 339.00,261.00
             339.00,261.00 371.00,261.00 371.00,261.00
             371.00,276.56 367.89,292.68 361.71,307.00
             353.50,326.05 339.86,343.12 323.00,355.25
             281.38,385.21 222.30,382.76 183.00,350.08
             172.06,340.98 163.10,330.54 156.31,318.00
             139.32,286.66 137.06,251.17 150.20,218.00
             155.05,205.76 162.82,193.42 172.01,184.00
             174.61,181.34 185.60,172.06 185.56,168.96
             185.52,165.86 177.43,156.73 175.00,151.00
             175.00,151.00 185.00,151.91 185.00,151.91 Z" />
</svg>
