<?xml version="1.0" encoding="UTF-8" standalone="no"?>
<svg
   xmlns:dc="http://purl.org/dc/elements/1.1/"
   xmlns:cc="http://creativecommons.org/ns#"
   xmlns:rdf="http://www.w3.org/1999/02/22-rdf-syntax-ns#"
   xmlns:svg="http://www.w3.org/2000/svg"
   xmlns="http://www.w3.org/2000/svg"
   xmlns:sodipodi="http://sodipodi.sourceforge.net/DTD/sodipodi-0.dtd"
   xmlns:inkscape="http://www.inkscape.org/namespaces/inkscape"
   width="7.11111in"
   height="7.11111in"
   viewBox="0 0 512 512"
   id="svg2"
   version="1.1"
   inkscape:version="0.91 r13725"
   sodipodi:docname="Repeat.svg">
  <metadata
     id="metadata9">
    <rdf:RDF>
      <cc:Work
         rdf:about="">
        <dc:format>image/svg+xml</dc:format>
        <dc:type
           rdf:resource="http://purl.org/dc/dcmitype/StillImage" />
      </cc:Work>
    </rdf:RDF>
  </metadata>
  <defs
     id="defs7" />
  <sodipodi:namedview
     pagecolor="#ffffff"
     bordercolor="#666666"
     borderopacity="1"
     objecttolerance="10"
     gridtolerance="10"
     guidetolerance="10"
     inkscape:pageopacity="0"
     inkscape:pageshadow="2"
     inkscape:window-width="701"
     inkscape:window-height="480"
     id="namedview5"
     showgrid="false"
     inkscape:zoom="0.36875005"
     inkscape:cx="319.99996"
     inkscape:cy="319.99996"
     inkscape:window-x="0"
     inkscape:window-y="0"
     inkscape:window-maximized="0"
     inkscape:current-layer="svg2" />
  <path
     id="Repeat"
     d="m 240.65692,50.693864 c 26.1,-0.17 58.1,8.2 82,18.51 25.56,11.02 49.29,26.57 69,46.279996 18.78,18.77 35.23,39.89 46.68,64 41.6,87.54 26.48,188.89 -39.77,260 -19.16,20.57 -42.77,36.88 -67.91,49.24 -32.05,15.76 -69.41,23.17 -105,22.76 0,0 -10,-0.91 -10,-0.91 -21.88,-1.51 -43.41,-5.46 -64,-13.28 -36.92,-14.03 -66.200002,-33.32 -92.830002,-62.81 -66.4299999,-73.55 -76.73,-183.42 -27.74,-269 26.5,-46.3 70.230002,-83.379996 120.570002,-101.309996 24.62,-8.77 36.02,-9.72 61,-13.48 0,0 28,0 28,0 z m -29,31.96 c -11.25,1.07 -23.13,3.16 -34,6.26 -55.19,15.729996 -100.630002,52.679996 -125.740002,104.569996 -41.22,85.15 -17.01,190.32 59.740002,246.85 16.77,12.34 35.22,22.22 55,28.82 15.61,5.2 37.58,10.13 54,10.33 0,0 19,0 19,0 25.2,-0.04 57.43,-9.25 80,-20.26 53.29,-25.98 92.7,-77.04 105.42,-134.74 2.17,-9.83 4.56,-25.05 4.58,-35 0.05,-29.46 -1.75,-49.9 -12.05,-78 -22.73,-61.97 -76.38,-109.96 -140.95,-124.419996 -12.63,-2.83 -38.52,-6.46 -51,-5.3 0,0 -14,0.89 -14,0.89 z m -52,93.739996 c 0,0 22,1.18 22,1.18 0,0 30,1.91 30,1.91 0,0 -3.58,14 -3.58,14 0,0 -12.42,46 -12.42,46 -4.71,-2.63 -7.26,-7.69 -10.34,-11.99 -1.3,-1.81 -3.09,-4.75 -5.7,-4.39 -2.69,0.37 -9.78,8.13 -11.79,10.38 -10.38,11.65 -18.98,32.27 -19.17,48 0,0 0,7 0,7 0.05,34.02 24.21,65.02 56,75.92 11.1,3.81 19.49,4.21 31,4.08 10.02,-0.12 21.05,-3.36 30,-7.76 46.99,-23.09 63.16,-80.66 31.52,-123.24 -5.5,-7.41 -10.83,-12.85 -18.52,-18 1.12,-5.33 2.65,-6.61 5.66,-11 1.87,-2.72 9,-13.89 11.52,-14.68 3.2,-1 9.48,4.93 11.82,6.97 10.01,8.71 19.68,21.88 25.74,33.71 17.63,34.38 15.5,73.18 -2,107 -5.12,9.91 -10.86,16.96 -18.57,24.91 -42.58,43.92 -113.79,45.77 -159.17,4.92 -21.38,-19.24 -36.95,-50.78 -37,-79.83 0,0 0,-13 0,-13 0.24,-20.4 10.25,-44.86 22.37,-61 4.56,-6.06 9.18,-10.73 14.63,-15.96 1.7,-1.64 5.97,-4.94 6.47,-7.13 0.54,-2.35 -1.63,-5.09 -2.9,-6.91 -2.9,-4.19 -5.55,-7.23 -7.57,-12 0,0 10,0.91 10,0.91 z"
     inkscape:connector-curvature="0"
     style="fill:none;stroke:#000000;stroke-width:1" />
</svg>
