<?xml version="1.0" encoding="UTF-8" standalone="no"?>
<!DOCTYPE svg PUBLIC "-//W3C//DTD SVG 20010904//EN"
              "http://www.w3.org/TR/2001/REC-SVG-20010904/DTD/svg10.dtd">

<svg xmlns="http://www.w3.org/2000/svg"
     width="7.11111in" height="7.11111in"
     viewBox="0 0 512 512">
  <path id="Shuffle"
        fill="none" stroke="black" stroke-width="1"
        d="M 266.00,26.21
           C 292.10,26.04 324.10,34.41 348.00,44.72
             373.56,55.74 397.29,71.29 417.00,91.00
             435.78,109.77 452.23,130.89 463.68,155.00
             505.28,242.54 490.16,343.89 423.91,415.00
             404.75,435.57 381.14,451.88 356.00,464.24
             323.95,480.00 286.59,487.41 251.00,487.00
             251.00,487.00 241.00,486.09 241.00,486.09
             219.12,484.58 197.59,480.63 177.00,472.81
             140.08,458.78 110.80,439.49 84.17,410.00
             17.74,336.45 7.44,226.58 56.43,141.00
             82.93,94.70 126.66,57.62 177.00,39.69
             201.62,30.92 213.02,29.97 238.00,26.21
             238.00,26.21 266.00,26.21 266.00,26.21 Z
           M 237.00,58.17
           C 225.75,59.24 213.87,61.33 203.00,64.43
             147.81,80.16 102.37,117.11 77.26,169.00
             36.04,254.15 60.25,359.32 137.00,415.85
             153.77,428.19 172.22,438.07 192.00,444.67
             207.61,449.87 229.58,454.80 246.00,455.00
             246.00,455.00 265.00,455.00 265.00,455.00
             290.20,454.96 322.43,445.75 345.00,434.74
             398.29,408.76 437.70,357.70 450.42,300.00
             452.59,290.17 454.98,274.95 455.00,265.00
             455.05,235.54 453.25,215.10 442.95,187.00
             420.22,125.03 366.57,77.04 302.00,62.58
             289.37,59.75 263.48,56.12 251.00,57.28
             251.00,57.28 237.00,58.17 237.00,58.17 Z
           M 198.00,154.00
           C 198.00,154.00 218.00,184.00 218.00,184.00
             218.00,184.00 229.00,202.00 229.00,202.00
             229.00,202.00 211.00,202.00 211.00,202.00
             211.00,202.00 211.00,256.00 211.00,256.00
             211.00,258.18 210.91,260.92 211.51,263.00
             213.55,270.10 227.50,284.56 233.00,290.00
             237.76,294.71 243.56,299.65 249.00,303.57
             250.72,304.81 254.28,307.67 256.42,307.54
             260.14,307.32 272.73,296.22 276.00,293.42
             282.36,287.97 298.74,270.61 301.30,263.00
             302.13,260.55 302.00,257.58 302.00,255.00
             302.00,255.00 302.00,202.00 302.00,202.00
             302.00,202.00 284.00,202.00 284.00,202.00
             286.25,194.92 301.00,174.50 306.00,167.00
             309.16,162.26 311.83,156.69 317.00,154.00
             317.00,154.00 348.00,202.00 348.00,202.00
             348.00,202.00 330.00,202.00 330.00,202.00
             330.00,202.00 330.00,264.00 330.00,264.00
             329.98,274.08 326.33,277.97 320.57,286.00
             315.49,293.07 306.24,303.98 300.00,309.96
             295.06,314.69 289.22,318.58 285.00,324.00
             285.00,324.00 303.00,328.77 303.00,328.77
             317.20,332.08 325.49,333.00 340.00,333.00
             340.00,333.00 340.00,361.00 340.00,361.00
             319.67,361.00 302.46,358.20 283.00,352.28
             283.00,352.28 266.00,345.70 266.00,345.70
             263.24,344.46 259.01,342.16 256.00,342.24
             253.34,342.31 248.68,344.87 246.00,345.99
             246.00,345.99 225.00,353.66 225.00,353.66
             208.31,358.99 190.45,361.00 173.00,361.00
             173.00,361.00 173.00,333.00 173.00,333.00
             195.06,333.00 207.29,329.90 228.00,323.00
             214.52,313.10 201.97,299.52 192.15,286.00
             186.21,277.82 182.02,273.33 182.00,263.00
             182.00,263.00 182.00,202.00 182.00,202.00
             182.00,202.00 165.00,202.00 165.00,202.00
             165.00,202.00 176.00,184.00 176.00,184.00
             176.00,184.00 196.00,154.00 196.00,154.00
             196.00,154.00 198.00,154.00 198.00,154.00 Z" />
</svg>
