<?xml version="1.0" encoding="UTF-8" standalone="no"?>
<!DOCTYPE svg PUBLIC "-//W3C//DTD SVG 20010904//EN"
              "http://www.w3.org/TR/2001/REC-SVG-20010904/DTD/svg10.dtd">

<svg xmlns="http://www.w3.org/2000/svg"
     width="7.11111in" height="7.11111in"
     viewBox="0 0 512 512">
  <path id="Volume mute"
        fill="none" stroke="black" stroke-width="1"
        d="M 266.00,26.21
           C 292.10,26.04 324.10,34.41 348.00,44.72
             373.56,55.74 397.29,71.29 417.00,91.00
             435.78,109.77 452.23,130.89 463.68,155.00
             505.28,242.54 490.16,343.89 423.91,415.00
             404.75,435.57 381.14,451.88 356.00,464.24
             323.95,480.00 286.59,487.41 251.00,487.00
             251.00,487.00 241.00,486.09 241.00,486.09
             219.12,484.58 197.59,480.63 177.00,472.81
             140.08,458.78 110.80,439.49 84.17,410.00
             17.74,336.45 7.44,226.58 56.43,141.00
             82.93,94.70 126.66,57.62 177.00,39.69
             201.62,30.92 213.02,29.97 238.00,26.21
             238.00,26.21 266.00,26.21 266.00,26.21 Z
           M 237.00,58.17
           C 225.75,59.24 213.87,61.33 203.00,64.43
             147.81,80.16 102.37,117.11 77.26,169.00
             36.04,254.15 60.25,359.32 137.00,415.85
             153.77,428.19 172.22,438.07 192.00,444.67
             207.61,449.87 229.58,454.80 246.00,455.00
             246.00,455.00 265.00,455.00 265.00,455.00
             290.20,454.96 322.43,445.75 345.00,434.74
             398.29,408.76 437.70,357.70 450.42,300.00
             452.59,290.17 454.98,274.95 455.00,265.00
             455.05,235.54 453.25,215.10 442.95,187.00
             420.22,125.03 366.57,77.04 302.00,62.58
             289.37,59.75 263.48,56.12 251.00,57.28
             251.00,57.28 237.00,58.17 237.00,58.17 Z
           M 181.00,221.00
           C 181.00,221.00 189.00,220.30 189.00,220.30
             189.00,220.30 210.00,206.58 210.00,206.58
             210.00,206.58 246.00,181.66 246.00,181.66
             246.00,181.66 266.00,169.00 266.00,169.00
             266.00,169.00 266.00,344.00 266.00,344.00
             266.00,344.00 209.00,305.33 209.00,305.33
             209.00,305.33 189.00,292.51 189.00,292.51
             189.00,292.51 182.00,292.00 182.00,292.00
             182.00,292.00 125.00,292.00 125.00,292.00
             125.00,292.00 125.00,221.00 125.00,221.00
             125.00,221.00 181.00,221.00 181.00,221.00 Z
           M 313.00,263.00
           C 314.91,261.06 318.61,258.08 317.80,255.00
             317.31,253.14 314.37,250.39 313.00,249.00
             313.00,249.00 300.00,236.00 300.00,236.00
             297.63,233.58 293.96,230.73 295.74,227.00
             296.52,225.38 299.64,222.36 301.00,221.00
             302.80,219.20 306.33,215.20 309.00,215.20
             311.24,215.20 313.49,217.58 315.00,219.02
             315.00,219.02 328.00,232.00 328.00,232.00
             329.77,233.76 333.40,237.96 336.00,237.96
             338.42,237.96 341.37,234.60 343.00,233.00
             343.00,233.00 356.00,220.00 356.00,220.00
             357.67,218.37 360.51,215.20 363.00,215.20
             365.67,215.20 369.20,219.20 371.00,221.00
             372.80,222.80 376.80,226.33 376.80,229.00
             376.80,231.24 374.42,233.49 372.98,235.00
             372.98,235.00 360.00,248.00 360.00,248.00
             357.94,250.07 353.34,253.74 354.20,257.00
             354.78,259.22 360.18,264.18 362.00,266.00
             367.29,271.29 374.79,278.12 379.00,284.00
             374.12,288.88 368.13,296.10 362.00,299.00
             362.00,299.00 344.00,280.00 344.00,280.00
             344.00,280.00 336.00,274.04 336.00,274.04
             336.00,274.04 328.00,280.00 328.00,280.00
             328.00,280.00 310.00,299.00 310.00,299.00
             304.07,296.20 296.84,288.36 293.00,283.00
             293.00,283.00 313.00,263.00 313.00,263.00 Z" />
</svg>
