<?xml version="1.0" encoding="UTF-8" standalone="no"?>
<!DOCTYPE svg PUBLIC "-//W3C//DTD SVG 20010904//EN"
              "http://www.w3.org/TR/2001/REC-SVG-20010904/DTD/svg10.dtd">

<svg xmlns="http://www.w3.org/2000/svg"
     width="7.11111in" height="7.11111in"
     viewBox="0 0 512 512">
  <path id="Repeat"
        fill="none" stroke="black" stroke-width="1"
        d="M 266.00,26.21
           C 292.10,26.04 324.10,34.41 348.00,44.72
             373.56,55.74 397.29,71.29 417.00,91.00
             435.78,109.77 452.23,130.89 463.68,155.00
             505.28,242.54 490.16,343.89 423.91,415.00
             404.75,435.57 381.14,451.88 356.00,464.24
             323.95,480.00 286.59,487.41 251.00,487.00
             251.00,487.00 241.00,486.09 241.00,486.09
             219.12,484.58 197.59,480.63 177.00,472.81
             140.08,458.78 110.80,439.49 84.17,410.00
             17.74,336.45 7.44,226.58 56.43,141.00
             82.93,94.70 126.66,57.62 177.00,39.69
             201.62,30.92 213.02,29.97 238.00,26.21
             238.00,26.21 266.00,26.21 266.00,26.21 Z
           M 237.00,58.17
           C 225.75,59.24 213.87,61.33 203.00,64.43
             147.81,80.16 102.37,117.11 77.26,169.00
             36.04,254.15 60.25,359.32 137.00,415.85
             153.77,428.19 172.22,438.07 192.00,444.67
             207.61,449.87 229.58,454.80 246.00,455.00
             246.00,455.00 265.00,455.00 265.00,455.00
             290.20,454.96 322.43,445.75 345.00,434.74
             398.29,408.76 437.70,357.70 450.42,300.00
             452.59,290.17 454.98,274.95 455.00,265.00
             455.05,235.54 453.25,215.10 442.95,187.00
             420.22,125.03 366.57,77.04 302.00,62.58
             289.37,59.75 263.48,56.12 251.00,57.28
             251.00,57.28 237.00,58.17 237.00,58.17 Z
           M 185.00,151.91
           C 185.00,151.91 207.00,153.09 207.00,153.09
             207.00,153.09 237.00,155.00 237.00,155.00
             237.00,155.00 233.42,169.00 233.42,169.00
             233.42,169.00 221.00,215.00 221.00,215.00
             216.29,212.37 213.74,207.31 210.66,203.01
             209.36,201.20 207.57,198.26 204.96,198.62
             202.27,198.99 195.18,206.75 193.17,209.00
             182.79,220.65 174.19,241.27 174.00,257.00
             174.00,257.00 174.00,264.00 174.00,264.00
             174.05,298.02 198.21,329.02 230.00,339.92
             241.10,343.73 249.49,344.13 261.00,344.00
             271.02,343.88 282.05,340.64 291.00,336.24
             337.99,313.15 354.16,255.58 322.52,213.00
             317.02,205.59 311.69,200.15 304.00,195.00
             305.12,189.67 306.65,188.39 309.66,184.00
             311.53,181.28 318.66,170.11 321.18,169.32
             324.38,168.32 330.66,174.25 333.00,176.29
             343.01,185.00 352.68,198.17 358.74,210.00
             376.37,244.38 374.24,283.18 356.74,317.00
             351.62,326.91 345.88,333.96 338.17,341.91
             295.59,385.83 224.38,387.68 179.00,346.83
             157.62,327.59 142.05,296.05 142.00,267.00
             142.00,267.00 142.00,254.00 142.00,254.00
             142.24,233.60 152.25,209.14 164.37,193.00
             168.93,186.94 173.55,182.27 179.00,177.04
             180.70,175.40 184.97,172.10 185.47,169.91
             186.01,167.56 183.84,164.82 182.57,163.00
             179.67,158.81 177.02,155.77 175.00,151.00
             175.00,151.00 185.00,151.91 185.00,151.91 Z" />
</svg>
